<?xml version="1.0" encoding="utf-8"?>
<!-- Generator: Adobe Illustrator 16.0.0, SVG Export Plug-In . SVG Version: 6.00 Build 0)  -->
<!DOCTYPE svg PUBLIC "-//W3C//DTD SVG 1.1//EN" "http://www.w3.org/Graphics/SVG/1.1/DTD/svg11.dtd">
<svg version="1.1" id="圖層_1" xmlns="http://www.w3.org/2000/svg" xmlns:xlink="http://www.w3.org/1999/xlink" x="0px" y="0px"
	 width="65px" height="65px" viewBox="0 0 65 65" enable-background="new 0 0 65 65" xml:space="preserve">
<circle fill="#009844" cx="32.5" cy="32.353" r="31.353"/>
<g>
	<g>
		<path fill="#FFFFFF" stroke="#009844" stroke-width="0.3165" stroke-miterlimit="10" d="M53.937,23.75l-8.667-8.666
			c-0.549-0.549-1.277-0.851-2.054-0.851c-0.776,0-1.505,0.302-2.054,0.851l-2.036,2.037c-0.313,0.313-0.537,0.682-0.677,1.074
			l-9.527-1.706c-0.001,0-0.002,0-0.003,0c-4.284-0.851-8.466,1.934-9.331,6.22l-0.44,2.179c-0.484,2.408,1.079,4.761,3.487,5.247
			c2.407,0.484,4.76-1.079,5.246-3.487l0.269-1.333l4.273,0.374L43.58,36.847l2.022,2.022c0.409,0.41,0.409,1.076,0,1.486
			c-0.409,0.409-1.076,0.409-1.485,0L38.7,34.938c-0.377-0.377-0.989-0.377-1.366,0c-0.377,0.376-0.377,0.988,0,1.365l5.417,5.418
			c0.198,0.198,0.308,0.462,0.308,0.742c0,0.281-0.109,0.544-0.308,0.743c-0.409,0.41-1.076,0.41-1.485,0l-5.417-5.417
			c-0.378-0.377-0.99-0.377-1.366,0c-0.378,0.378-0.378,0.989,0,1.367l5.417,5.417c0.409,0.41,0.409,1.076,0,1.486
			c-0.199,0.198-0.462,0.308-0.743,0.308s-0.545-0.11-0.743-0.308l-5.417-5.417c-0.377-0.377-0.989-0.377-1.367,0
			s-0.377,0.989,0,1.366l5.417,5.417c0.41,0.41,0.41,1.076,0,1.486c-0.408,0.409-1.076,0.41-1.484,0L13.864,27.211
			c-0.377-0.377-0.989-0.377-1.367,0c-0.377,0.377-0.377,0.99,0,1.367l5.286,5.286l-1.518,1.518
			c-0.497,0.497-0.771,1.159-0.771,1.861c0,0.704,0.274,1.364,0.771,1.862l0.496,0.496c0.435,0.434,0.994,0.698,1.598,0.758
			c0.06,0.604,0.323,1.164,0.758,1.598l0.495,0.496c0.446,0.446,1.014,0.698,1.598,0.756c0.059,0.604,0.323,1.166,0.758,1.6
			l0.496,0.496c0.436,0.434,0.995,0.699,1.599,0.758c0.06,0.604,0.323,1.165,0.757,1.599l0.497,0.496
			c0.513,0.513,1.187,0.77,1.861,0.77c0.673,0,1.348-0.256,1.861-0.77l1.519-1.519l3.64,3.639c0.563,0.563,1.312,0.874,2.109,0.874
			c0.796,0,1.546-0.31,2.108-0.874c0.534-0.534,0.837-1.236,0.868-1.984c0.75-0.031,1.451-0.334,1.984-0.868
			c0.55-0.551,0.837-1.263,0.867-1.985c0.722-0.03,1.435-0.316,1.985-0.867c0.55-0.55,0.837-1.262,0.866-1.985
			c0.723-0.03,1.436-0.316,1.985-0.866c1.163-1.164,1.163-3.056,0-4.219l-1.339-1.339l4.9-4.9l3.407-3.406
			C55.069,26.724,55.069,24.882,53.937,23.75L53.937,23.75z M17.631,37.739c-0.273-0.273-0.273-0.718,0-0.99l1.424-1.424
			l1.485,1.485l-1.423,1.424c-0.273,0.272-0.718,0.272-0.991,0L17.631,37.739z M20.483,40.59c-0.273-0.274-0.273-0.717,0-0.99
			l1.423-1.424l1.485,1.485l-1.424,1.424c-0.271,0.273-0.716,0.273-0.989,0L20.483,40.59z M23.334,43.442
			c-0.132-0.132-0.205-0.308-0.205-0.495c0-0.186,0.073-0.362,0.205-0.495l1.424-1.424l1.486,1.485l-1.425,1.425
			c-0.272,0.273-0.717,0.273-0.99,0L23.334,43.442z M27.672,46.789c-0.273,0.273-0.717,0.273-0.99,0l-0.496-0.495
			c-0.272-0.273-0.272-0.718,0-0.99l1.425-1.424l1.485,1.487L27.672,46.789z M44.264,34.796L33.539,24.073
			c-0.16-0.16-0.373-0.259-0.599-0.279l-5.484-0.479c-0.028-0.002-0.057-0.003-0.084-0.003c-0.456,0-0.854,0.32-0.946,0.775
			l-0.44,2.18c-0.274,1.362-1.607,2.248-2.97,1.973c-0.66-0.133-1.229-0.515-1.602-1.076c-0.373-0.561-0.505-1.233-0.371-1.894
			l0.439-2.18c0.655-3.248,3.829-5.358,7.079-4.703c0.005,0.001,0.013,0.003,0.021,0.004l9.389,1.681l10.509,10.51L44.264,34.796z
			 M52.57,26.491l-2.725,2.724l-9.353-9.353c-0.185-0.185-0.285-0.428-0.285-0.688c0-0.259,0.101-0.503,0.285-0.687l2.036-2.037
			c0.184-0.183,0.428-0.285,0.688-0.285c0.26,0,0.504,0.102,0.688,0.285l8.666,8.666c0.183,0.183,0.284,0.428,0.284,0.687
			C52.854,26.063,52.753,26.307,52.57,26.491L52.57,26.491z M52.57,26.491"/>
	</g>
	<path fill="#FFFFFF" stroke="#009844" stroke-width="0.3165" stroke-miterlimit="10" d="M51.197,26.187
		c0,0.534-0.433,0.966-0.967,0.966c-0.533,0-0.967-0.433-0.967-0.966s0.434-0.966,0.967-0.966
		C50.764,25.221,51.197,25.653,51.197,26.187L51.197,26.187z M51.197,26.187"/>
</g>
</svg>
