<?xml version="1.0" encoding="utf-8"?>
<!-- Generator: Adobe Illustrator 16.0.0, SVG Export Plug-In . SVG Version: 6.00 Build 0)  -->
<!DOCTYPE svg PUBLIC "-//W3C//DTD SVG 1.1//EN" "http://www.w3.org/Graphics/SVG/1.1/DTD/svg11.dtd">
<svg version="1.1" id="圖層_1" xmlns="http://www.w3.org/2000/svg" xmlns:xlink="http://www.w3.org/1999/xlink" x="0px" y="0px"
	 width="318px" height="70.142px" viewBox="501.444 -60.803 318 70.142" enable-background="new 501.444 -60.803 318 70.142"
	 xml:space="preserve">
<g>
	<g>
		<path fill="#231815" d="M580.735-33.776h-0.865v-0.661h-4.431v0.634h-0.875v-7.886h6.172v7.913H580.735z M579.869-38.589v-2.233
			h-4.431v2.233H579.869z M579.869-35.275v-2.438h-4.431v2.438H579.869z"/>
		<path fill="#231815" d="M589.173-40.92c0.035-0.34,0.081-0.688,0.117-1.055h0.84c-0.035,0.376-0.081,0.723-0.125,1.055h4.59v0.865
			h-4.705c-0.073,0.402-0.135,0.778-0.207,1.116h4.072v0.634c-0.23,0.938-0.668,1.751-1.312,2.438
			c-0.046,0.044-0.082,0.08-0.108,0.107c0.652,0.455,1.439,0.84,2.368,1.152l-0.491,0.831c-1.054-0.438-1.895-0.902-2.538-1.42
			c-0.696,0.491-1.625,0.947-2.804,1.393l-0.456-0.875c1.09-0.294,1.965-0.661,2.618-1.09c-0.009,0-0.009-0.009-0.009-0.009
			c-0.679-0.652-1.152-1.446-1.421-2.393h-0.098c-0.106,0.392-0.214,0.75-0.33,1.062c-0.447,1.17-1.117,2.215-2.01,3.126
			l-0.563-0.732c0.778-0.831,1.375-1.769,1.804-2.804c0.25-0.679,0.464-1.528,0.634-2.538h-2.366v-0.865H589.173L589.173-40.92z
			 M591.683-36.285c0.473-0.438,0.856-1.063,1.143-1.884h-2.367C590.737-37.402,591.147-36.767,591.683-36.285z"/>
		<path fill="#231815" d="M602.238-41.448v0.769h-0.973v1.813h0.901v0.767h-0.901v2.054c0.356-0.144,0.706-0.285,1.044-0.447v0.805
			c-0.785,0.411-1.687,0.776-2.688,1.116l-0.241-0.84c0.384-0.108,0.76-0.223,1.116-0.349v-2.34h-0.875v-0.767h0.875v-1.813h-0.946
			v-0.769H602.238z M607.265-38.339v1.848h-1.75c0.187,0.349,0.366,0.625,0.527,0.84c0.276-0.25,0.5-0.5,0.661-0.741l0.661,0.383
			c-0.179,0.232-0.464,0.519-0.857,0.849c0.303,0.241,0.688,0.473,1.169,0.688l-0.411,0.697c-0.67-0.339-1.161-0.679-1.473-1.018
			c-0.358-0.393-0.688-0.957-1.01-1.698h-0.257c-0.072,0.117-0.152,0.224-0.225,0.313v1.491c0.384-0.053,0.778-0.115,1.18-0.206
			v0.706c-0.769,0.152-1.618,0.278-2.546,0.384l-0.106-0.732c0.241-0.018,0.491-0.036,0.741-0.062v-0.849
			c-0.447,0.347-0.946,0.642-1.5,0.875l-0.385-0.634c0.608-0.241,1.081-0.5,1.429-0.778c0.197-0.16,0.375-0.33,0.537-0.509h-1.027
			v-1.848H607.265L607.265-38.339z M607.579-39.383v0.659h-5.271v-0.659H607.579z M607.365-41.76v1.992h-4.851v-1.992H607.365z
			 M604.015-41.134h-0.732v0.732h0.732V-41.134z M606.463-37.714h-3.038v0.59h3.038V-37.714z M605.274-41.134h-0.624v0.732h0.624
			V-41.134z M606.595-41.134h-0.696v0.732h0.696V-41.134z"/>
		<path fill="#231815" d="M614.945-41.653c-0.259,0.822-0.527,1.501-0.805,2.038v5.742h-0.803v-4.466
			c-0.206,0.294-0.429,0.581-0.661,0.866l-0.277-0.973c0.365-0.484,0.688-0.983,0.973-1.501c0.286-0.464,0.572-1.143,0.84-2.028
			L614.945-41.653z M619.794-41.59v2.903h-1.812v0.768h2.616v0.795h-1.919c0.197,0.356,0.436,0.697,0.705,1.009
			c0.312,0.358,0.75,0.741,1.312,1.161l-0.553,0.697c-0.608-0.5-1.099-1.009-1.464-1.528c-0.269-0.348-0.501-0.75-0.697-1.205v3.188
			h-0.84v-3.321h-0.026c-0.188,0.463-0.376,0.83-0.563,1.097c-0.356,0.572-0.947,1.18-1.751,1.804l-0.454-0.768
			c0.571-0.411,1.026-0.822,1.356-1.223c0.214-0.251,0.42-0.555,0.617-0.911h-1.76v-0.795h2.582v-0.768h-1.849v-2.903H619.794z
			 M618.955-40.822h-2.823v1.366h2.823V-40.822z"/>
		<path fill="#231815" d="M626.321-40.296v-1.679h0.768v1.679h0.697v0.733h-0.697v0.482c0.322,0.394,0.652,0.83,0.975,1.294
			l-0.144,0.215h0.751c0.009-0.195,0.018-0.41,0.018-0.635c-0.198,0.028-0.394,0.055-0.59,0.073l-0.135-0.625
			c0.135,0,0.268-0.009,0.402-0.027c0.197-0.268,0.393-0.59,0.588-0.964c-0.303,0.063-0.624,0.125-0.964,0.188l-0.133-0.59
			c0.106-0.009,0.223-0.018,0.339-0.036c0.287-0.518,0.501-1.072,0.634-1.68l0.634,0.072c-0.144,0.544-0.34,1.044-0.59,1.508
			c0.134-0.018,0.259-0.044,0.375-0.071c0.106-0.224,0.206-0.456,0.312-0.706l0.599,0.206c-0.376,0.831-0.76,1.51-1.134,2.036
			c0.206-0.018,0.411-0.035,0.607-0.053c-0.046-0.17-0.09-0.34-0.143-0.508l0.455-0.108c0.197,0.482,0.348,0.929,0.456,1.322
			l-0.563,0.214c-0.026-0.134-0.053-0.268-0.08-0.393c-0.125,0.018-0.25,0.035-0.367,0.055c0,0.268-0.009,0.508-0.018,0.723h1.154
			c-0.144-0.93-0.234-2.412-0.268-4.431h0.697c0.053,2.089,0.142,3.573,0.257,4.431h0.831c-0.062-0.179-0.133-0.367-0.223-0.546
			c-0.16,0.018-0.321,0.036-0.482,0.055l-0.17-0.625c0.144,0,0.278,0,0.402-0.009c0.197-0.287,0.402-0.634,0.599-1.045
			c-0.303,0.062-0.625,0.125-0.964,0.179l-0.144-0.59c0.106-0.009,0.214-0.018,0.322-0.036c0.25-0.518,0.437-1.072,0.553-1.678
			l0.625,0.071c-0.125,0.553-0.294,1.063-0.519,1.527c0.144-0.019,0.278-0.035,0.402-0.063c0.088-0.188,0.17-0.383,0.259-0.588
			l0.59,0.206c-0.349,0.803-0.696,1.455-1.045,1.964c0.206-0.027,0.393-0.062,0.555-0.106c-0.046-0.161-0.09-0.312-0.135-0.464
			l0.456-0.098c0.188,0.464,0.338,0.893,0.446,1.285l-0.554,0.214c-0.027-0.126-0.053-0.259-0.089-0.402
			c-0.142,0.037-0.286,0.072-0.447,0.108c0.09,0.197,0.17,0.411,0.241,0.644h0.822v0.661h-2.207
			c0.082,0.392,0.179,0.723,0.286,1.009c0.197-0.232,0.393-0.5,0.59-0.805l0.599,0.313c-0.268,0.447-0.555,0.84-0.867,1.161
			c0.286,0.464,0.526,0.696,0.723,0.696c0.044,0,0.08-0.036,0.099-0.098c0.036-0.072,0.071-0.464,0.106-1.161l0.696,0.383
			c-0.097,0.679-0.206,1.117-0.33,1.34c-0.125,0.179-0.305,0.268-0.537,0.268c-0.375,0-0.776-0.321-1.214-0.964
			c-0.009-0.009-0.009-0.018-0.009-0.018c-0.411,0.33-0.964,0.625-1.645,0.875l-0.374-0.599c0.643-0.232,1.179-0.509,1.599-0.84
			c0.026-0.018,0.053-0.044,0.08-0.062c-0.196-0.42-0.356-0.919-0.482-1.501h-1.331c-0.018,0.117-0.026,0.214-0.035,0.305
			c0.429,0.277,0.822,0.58,1.18,0.92l-0.42,0.625c-0.295-0.331-0.59-0.608-0.884-0.84c-0.117,0.464-0.259,0.84-0.429,1.107
			c-0.188,0.312-0.456,0.642-0.813,0.991l-0.526-0.67c0.367-0.338,0.642-0.67,0.822-0.991c0.142-0.251,0.266-0.67,0.374-1.26
			c0.009-0.062,0.018-0.124,0.027-0.188h-0.875v-0.42l-0.142,0.206c-0.206-0.392-0.375-0.723-0.519-0.991v4.313h-0.768v-3.84
			c-0.214,0.59-0.455,1.117-0.732,1.572l-0.313-0.875c0.411-0.697,0.76-1.5,1.045-2.411v-0.206h-0.911v-0.732h0.911V-40.296z"/>
		<path fill="#231815" d="M639.305-40.296v-1.705h0.768v1.705h0.805v0.733h-0.805v0.259c0.305,0.383,0.599,0.794,0.902,1.241
			l-0.446,0.696c-0.178-0.356-0.33-0.661-0.456-0.919v4.483h-0.768v-4.117c-0.214,0.588-0.456,1.116-0.732,1.563l-0.349-0.938
			c0.411-0.661,0.76-1.411,1.037-2.269h-0.938v-0.732h0.982V-40.296z M642.093-41.34v-0.661h0.768v0.661h1.5v-0.661h0.769v0.661
			h1.258v0.625h-1.258v0.42h0.946v0.588h-0.946v0.491h1.331v0.625h-2.447v0.42h1.991v2.162h0.492v0.668h-0.492v0.733
			c0,0.25-0.08,0.446-0.222,0.588c-0.125,0.117-0.295,0.179-0.51,0.179h-1.081l-0.142-0.697l0.946,0.027
			c0.161-0.018,0.241-0.117,0.241-0.313v-0.518h-3.18v1.536h-0.758v-1.536h-0.743v-0.67h0.743v-2.161h1.911v-0.42h-2.295v-0.625
			h1.179v-0.491h-0.831v-0.59h0.831v-0.42h-1.117v-0.624H642.093L642.093-41.34z M643.208-37.088v-0.447h-1.152v0.447H643.208z
			 M643.208-36.009v-0.482h-1.152v0.482H643.208z M644.36-40.714h-1.5v0.418h1.5V-40.714z M644.36-39.215v-0.491h-1.5v0.491H644.36z
			 M644.012-37.088h1.223v-0.447h-1.223V-37.088z M645.235-36.009v-0.482h-1.223v0.482H645.235z"/>
	</g>
	<g>
		<path fill="#231815" d="M512.287,3.089l-0.629,0.961c-0.501-0.491-1.013-0.875-1.536-1.162l0.534-0.79
			C511.243,2.373,511.786,2.704,512.287,3.089z M512.373,5.299c-0.395,1.621-0.863,2.952-1.418,4.04l-0.8-0.746
			c0.458-0.982,0.896-2.23,1.302-3.756L512.373,5.299z M512.661,0.646v-0.884h3.039v3.786h-2.122v5.75h-0.917V0.744l-0.544,0.852
			c-0.501-0.458-1.013-0.819-1.536-1.088l0.491-0.787C511.648-0.013,512.181,0.294,512.661,0.646z M514.783,1.264V0.552h-1.205
			v0.713H514.783z M514.783,2.758V2.012h-1.205v0.746H514.783z M517.994,4.006v0.757h-1.547v0.79h1.377v0.748h-1.377v0.958h1.59
			v0.746h-4.17V7.259h1.664V6.301h-1.408V5.553h1.408v-0.79h-1.536V4.006H517.994z M519.412-0.238v8.373
			c0,0.352-0.096,0.618-0.287,0.799c-0.161,0.16-0.428,0.246-0.802,0.246h-0.788l-0.213-0.958l0.8,0.042
			c0.234-0.012,0.362-0.139,0.373-0.414v-4.3h-2.251v-3.786h0.458H519.412L519.412-0.238z M518.495,1.264V0.552h-1.334v0.713
			H518.495z M518.495,2.012h-1.334v0.746h1.334V2.012z"/>
		<path fill="#231815" d="M527.025,0.22c0.065-0.278,0.119-0.565,0.182-0.875l1.002,0.085c-0.063,0.278-0.127,0.533-0.192,0.79
			h4.353v0.831h-4.598c-0.074,0.245-0.149,0.47-0.224,0.671h4.287v0.748h-4.585c-0.053,0.127-0.106,0.233-0.149,0.319
			c-0.053,0.098-0.096,0.181-0.139,0.266h5.621V3.89h-2.122c0.213,0.246,0.458,0.467,0.735,0.681
			c0.364,0.278,0.886,0.577,1.547,0.896l-0.661,0.834c-0.512-0.299-0.949-0.588-1.312-0.887c-0.448,0.438-0.97,0.834-1.568,1.186
			l-0.577-0.802c0.544-0.266,1.045-0.585,1.504-0.958c-0.299-0.29-0.544-0.609-0.736-0.95h-2.943
			c-0.214,0.299-0.427,0.565-0.64,0.787c-0.063,0.065-0.127,0.118-0.172,0.151c0.534,0.364,1.003,0.715,1.399,1.056L526.333,6.6
			c-0.352-0.364-0.822-0.76-1.42-1.166c-0.438,0.311-0.906,0.589-1.418,0.822l-0.544-0.917c0.949-0.384,1.674-0.831,2.175-1.333
			c0.042-0.042,0.075-0.074,0.118-0.116h-2.165V3.056h2.804c0.106-0.18,0.225-0.373,0.332-0.585h-2.464V1.723h2.815
			c0.086-0.213,0.162-0.435,0.235-0.671h-3.466V0.22H527.025L527.025,0.22z M526.918,7.505c-0.895,0.544-2.016,1.015-3.337,1.42
			l-0.374-0.917c1.131-0.29,2.293-0.749,3.499-1.378L526.918,7.505z M528.455,4.219v4.043c0,0.373-0.086,0.639-0.246,0.79
			c-0.149,0.16-0.427,0.246-0.833,0.246h-1.13l-0.203-1.035c0.426,0.053,0.789,0.086,1.077,0.086c0.246,0,0.374-0.086,0.374-0.257
			V4.219H528.455L528.455,4.219z M532.496,8.22l-0.585,0.873c-0.982-0.671-1.995-1.195-3.041-1.588l0.501-0.745
			C530.503,7.174,531.547,7.664,532.496,8.22z"/>
		<path fill="#231815" d="M538.873-0.41c-0.149,0.332-0.299,0.642-0.448,0.917h2.347c-0.213-0.287-0.438-0.565-0.683-0.831
			l1.078-0.171c0.235,0.298,0.458,0.642,0.671,1.002h3.083v0.79h-3.413v0.589h3.039v0.712h-3.039v0.577h3.039v0.712h-3.039v0.621
			h3.498V5.34h-3.839v0.544h4.213v0.831h-3.051c0.427,0.426,0.811,0.716,1.162,0.875c0.458,0.233,1.099,0.458,1.93,0.671
			l-0.543,0.875c-0.992-0.319-1.729-0.642-2.208-0.961c-0.491-0.34-0.97-0.819-1.42-1.461h-0.084v2.549h-0.992V6.715h-0.085
			c-0.299,0.405-0.641,0.736-1.013,1.002c-0.597,0.438-1.471,0.864-2.613,1.29l-0.544-0.873c1.152-0.343,1.973-0.65,2.464-0.949
			c0.235-0.127,0.458-0.29,0.662-0.47h-3.169V5.884h4.299V5.34h-3.21V2.749c-0.17,0.213-0.33,0.394-0.501,0.553l-0.714-0.875
			c0.939-0.917,1.643-1.928,2.132-3.038L538.873-0.41z M540.547,1.297h-2.57c-0.021,0.044-0.042,0.077-0.053,0.098v0.491h2.623
			V1.297L540.547,1.297z M540.547,2.598h-2.623v0.577h2.623V2.598z M540.547,3.89h-2.623v0.618h2.623V3.89z"/>
		<path fill="#231815" d="M558.006,9.179h-0.874V8.88h-7.456v0.299h-0.874v-9.461h9.204V9.179L558.006,9.179z M557.132,8.091V0.507
			h-7.456v7.583H557.132z M552.886,1.052V0.637h0.833v0.414h3.039v0.671h-3.039v0.375h2.624v2.538h-0.501
			c0.319,0.331,0.577,0.618,0.79,0.875l-0.663,0.458c-0.094-0.139-0.203-0.29-0.309-0.45c-0.074,0.012-0.137,0.012-0.19,0.012v0.523
			h1.332v0.66h-1.332v0.458c0,0.257-0.076,0.438-0.214,0.544c-0.127,0.119-0.362,0.172-0.704,0.172h-1.205l-0.127-0.716
			c0.426,0.065,0.79,0.085,1.087,0.085c0.214,0,0.332-0.065,0.332-0.201V6.715h-2.613c0.235,0.278,0.438,0.565,0.608,0.875
			l-0.79,0.34c-0.213-0.405-0.448-0.766-0.704-1.088l0.417-0.127h-1.461v-0.66h4.543V5.597c-1.291,0.083-2.73,0.169-4.33,0.243
			l-0.17-0.745c0.927-0.021,1.844-0.042,2.75-0.086V4.636h-2.507V2.098h2.507V1.723h-2.836V1.052H552.886z M552.886,3.089V2.717
			h-1.707v0.373H552.886z M552.886,3.633h-1.707v0.373h1.707V3.633z M553.719,3.089h1.833V2.717h-1.833V3.089z M555.552,3.633
			h-1.833v0.373h1.833V3.633z M554.955,4.636h-1.236v0.34c0.501-0.021,0.992-0.041,1.471-0.062
			C555.104,4.816,555.03,4.721,554.955,4.636z"/>
	</g>
	<g>
		<path fill="#231815" d="M585.993-8.784h-1.833v-1.399h-9.377v1.342h-1.853v-16.692h13.063V-8.784z M584.159-18.973v-4.727h-9.377
			v4.727H584.159z M584.159-11.959v-5.162h-9.377v5.162H584.159z"/>
		<path fill="#231815" d="M596.294-23.908c0.077-0.718,0.172-1.455,0.247-2.231h1.776c-0.075,0.794-0.168,1.532-0.265,2.231h9.717
			v1.834h-9.962c-0.151,0.85-0.283,1.645-0.435,2.363h8.622v1.342c-0.493,1.985-1.418,3.706-2.78,5.161
			c-0.093,0.095-0.17,0.17-0.226,0.227c1.379,0.964,3.043,1.777,5.01,2.438l-1.04,1.758c-2.231-0.926-4.009-1.909-5.369-3.005
			c-1.475,1.04-3.441,2.003-5.936,2.948l-0.964-1.853c2.306-0.624,4.159-1.399,5.538-2.307c-0.018,0-0.018-0.018-0.018-0.018
			c-1.438-1.381-2.44-3.064-3.006-5.068h-0.208c-0.227,0.833-0.453,1.588-0.7,2.25c-0.945,2.476-2.363,4.688-4.253,6.616l-1.19-1.55
			c1.645-1.758,2.91-3.743,3.818-5.937c0.529-1.436,0.983-3.233,1.343-5.368h-5.01v-1.834H596.294L596.294-23.908z M601.608-14.096
			c1.001-0.926,1.814-2.249,2.419-3.988h-5.01C599.604-16.459,600.473-15.116,601.608-14.096z"/>
		<path fill="#231815" d="M616.389-25.023v1.625h-2.06v3.837h1.909v1.627h-1.909v4.348c0.755-0.303,1.494-0.605,2.212-0.945v1.7
			c-1.664,0.871-3.573,1.646-5.69,2.363l-0.512-1.776c0.813-0.228,1.607-0.473,2.363-0.738v-4.953h-1.851v-1.627h1.851v-3.837
			h-2.003v-1.625H616.389L616.389-25.023z M627.034-18.444v3.913h-3.706c0.397,0.736,0.774,1.323,1.116,1.776
			c0.585-0.529,1.058-1.058,1.399-1.569l1.397,0.813c-0.377,0.493-0.982,1.096-1.814,1.797c0.643,0.51,1.457,1.001,2.477,1.455
			l-0.87,1.475c-1.418-0.719-2.458-1.436-3.12-2.155c-0.756-0.833-1.455-2.023-2.135-3.592h-0.549
			c-0.151,0.245-0.321,0.472-0.473,0.661v3.157c0.813-0.112,1.646-0.245,2.496-0.435v1.494c-1.626,0.322-3.422,0.587-5.387,0.813
			l-0.228-1.549c0.51-0.039,1.04-0.076,1.569-0.133v-1.795c-0.945,0.737-2.004,1.361-3.175,1.853l-0.813-1.343
			c1.285-0.51,2.288-1.059,3.024-1.645c0.417-0.34,0.794-0.699,1.134-1.078h-2.174v-3.913H627.034L627.034-18.444z M627.695-20.656
			v1.399h-11.153v-1.399H627.695z M627.241-25.685v4.216h-10.264v-4.216H627.241z M620.152-24.362h-1.55v1.55h1.55V-24.362z
			 M625.332-17.121h-6.427v1.248h6.427V-17.121z M622.818-24.362h-1.324v1.55h1.324V-24.362z M625.616-24.362h-1.475v1.55h1.475
			V-24.362z"/>
		<path fill="#231815" d="M635.729-25.457c-0.549,1.739-1.115,3.175-1.701,4.311v12.156h-1.702v-9.453
			c-0.435,0.624-0.908,1.229-1.399,1.833l-0.585-2.061c0.775-1.021,1.455-2.08,2.06-3.175c0.604-0.983,1.209-2.42,1.777-4.292
			L635.729-25.457z M645.995-25.326v6.145h-3.837v1.625h5.538v1.683h-4.063c0.416,0.757,0.926,1.474,1.492,2.137
			c0.662,0.756,1.589,1.569,2.78,2.458l-1.172,1.475c-1.285-1.059-2.325-2.137-3.1-3.233c-0.568-0.738-1.059-1.588-1.475-2.552
			v6.749h-1.777v-7.033h-0.056c-0.398,0.983-0.796,1.758-1.192,2.326c-0.756,1.209-2.004,2.495-3.706,3.818l-0.964-1.625
			c1.209-0.87,2.174-1.741,2.875-2.591c0.453-0.529,0.887-1.171,1.304-1.928h-3.725v-1.683h5.464v-1.625h-3.913v-6.145H645.995z
			 M644.218-23.699h-5.973v2.893h5.973V-23.699z"/>
		<path fill="#231815" d="M657.563-24.362c-0.68,0.228-1.455,0.416-2.286,0.568v2.759h2.739v1.55h-2.739v0.492
			c0.905,0.964,1.816,2.023,2.739,3.194l-0.965,1.418c-0.715-1.134-1.301-2.06-1.774-2.759v8.224h-1.627v-8.092
			c-0.095,0.189-0.189,0.397-0.266,0.587c-0.716,1.511-1.585,2.835-2.608,3.951l-0.663-1.853c1.363-1.476,2.496-3.196,3.404-5.161
			h-3.121v-1.551h3.253v-2.495c-0.813,0.114-1.683,0.207-2.591,0.284l-0.284-1.551c2.307-0.188,4.386-0.547,6.202-1.115
			L657.563-24.362z M667.678-14.38l-1.76,0.265v5.274h-1.7v-5.029l-6.202,0.889l-0.225-1.625l6.427-0.926v-10.664h1.7v10.417
			l1.553-0.226L667.678-14.38z M663.254-18.009l-1.321,1.322c-0.796-0.756-1.894-1.587-3.331-2.495l1.248-1.192
			C661.192-19.578,662.328-18.784,663.254-18.009z M663.555-22.509l-1.34,1.324c-0.757-0.738-1.854-1.55-3.253-2.438l1.266-1.173
			C661.536-24.039,662.651-23.264,663.555-22.509z"/>
		<path fill="#231815" d="M672.535-22.81v-3.385h1.777v3.385h2.079v1.625h-2.079v3.554c0.645-0.302,1.325-0.68,2.006-1.115v1.928
			c-0.643,0.398-1.325,0.756-2.006,1.059v4.916c0,0.68-0.15,1.153-0.452,1.418c-0.284,0.283-0.796,0.435-1.532,0.435h-1.55
			l-0.379-1.853c0.568,0.112,1.021,0.151,1.399,0.151c0.491,0,0.736-0.151,0.736-0.454v-3.837c-0.716,0.284-1.455,0.529-2.209,0.738
			l-0.229-1.986c0.793-0.112,1.606-0.321,2.438-0.623v-4.33h-2.363v-1.625H672.535z M680.893-23.549v-2.647h1.833v2.647h4.215v1.701
			h-4.215v2.44h3.857v1.475c-0.834,2.06-1.76,3.629-2.819,4.726c-0.186,0.227-0.378,0.416-0.585,0.605
			c1.097,0.812,2.534,1.494,4.273,2.06l-1.021,1.55c-2.005-0.793-3.555-1.625-4.652-2.514c-1.398,0.908-3.271,1.814-5.613,2.723
			l-0.739-1.683c2.156-0.699,3.856-1.436,5.104-2.212c-1.115-1.171-2.022-2.514-2.738-4.063l1.473-0.813
			c0.701,1.55,1.57,2.836,2.629,3.857c0.036-0.037,0.095-0.076,0.131-0.114c0.852-0.755,1.738-2.06,2.646-3.894h-7.408v-1.702h3.629
			v-2.438h-3.629v-1.701H680.893L680.893-23.549z"/>
		<path fill="#231815" d="M696.752-25.76v14.766c0,0.566-0.13,1.021-0.396,1.36c-0.263,0.321-0.698,0.491-1.305,0.491h-1.626
			l-0.435-1.701l1.553,0.075c0.34,0,0.508-0.189,0.508-0.587v-4.214c-0.529,0.547-1.097,1.057-1.7,1.549l-0.701-0.85
			c-0.056,0.775-0.13,1.55-0.245,2.325c-0.228,1.285-0.586,2.514-1.115,3.762l-1.398-1.249c0.452-0.964,0.774-1.965,0.964-3.024
			c0.133-1.097,0.207-2.098,0.207-3.025v-9.679h0.813H696.752L696.752-25.76z M695.051-17.744v-1.797l-1.114,0.491
			c-0.379-0.982-0.793-1.871-1.248-2.665v5.633c0,0.189-0.019,0.378-0.019,0.531C693.557-16.214,694.353-16.95,695.051-17.744z
			 M693.936-22.282c0.417,0.682,0.774,1.399,1.114,2.118v-3.969h-2.362v2.267L693.936-22.282z M705.902-18.084v1.341
			c-0.49,1.891-1.304,3.497-2.457,4.821c0.946,0.492,2.232,1.002,3.856,1.532l-0.943,1.681c-1.816-0.623-3.271-1.285-4.348-1.984
			c-1.08,0.719-2.461,1.362-4.162,1.909l-1.02-1.606c1.476-0.417,2.686-0.927,3.667-1.513c-0.908-0.945-1.645-2.231-2.191-3.818
			l1.473-0.435c0.568,1.475,1.269,2.551,2.118,3.25c0.076-0.075,0.171-0.17,0.266-0.265c0.813-0.887,1.417-1.984,1.813-3.289h-6.561
			v-1.625H705.902L705.902-18.084z M704.808-21.26c0,0.454,0.207,0.661,0.659,0.661h1.627v1.627h-2.006
			c-0.697,0-1.209-0.133-1.55-0.435c-0.34-0.284-0.508-0.776-0.508-1.474v-3.252h-2.591c-0.039,1.397-0.151,2.419-0.341,3.024
			c-0.228,0.832-0.792,1.778-1.721,2.874l-1.343-1.173c0.757-0.945,1.23-1.72,1.419-2.286c0.134-0.529,0.207-1.872,0.207-4.065
			h6.146V-21.26L704.808-21.26z"/>
		<path fill="#231815" d="M715.204-25.61c-0.491,1.476-0.984,2.742-1.476,3.8v12.818h-1.701v-9.982
			c-0.529,0.755-1.097,1.494-1.7,2.23l-0.586-2.079c0.793-1.021,1.491-2.079,2.115-3.177c0.606-0.983,1.209-2.4,1.798-4.272
			L715.204-25.61z M719.552-25.457c-0.642,1.814-1.21,3.119-1.662,3.932c-0.34,0.644-0.834,1.343-1.476,2.118h8.621
			c-0.379-0.492-0.681-0.964-0.926-1.457c-0.567-0.964-1.023-2.06-1.381-3.27h-2.286v-1.626h3.608
			c0.493,2.118,1.553,4.121,3.176,5.974l-1.171,1.625c-0.284-0.301-0.529-0.585-0.757-0.889c-0.169,4.993-0.358,7.677-0.586,8.092
			c-0.189,0.643-0.491,1.115-0.869,1.379c-0.32,0.322-0.908,0.512-1.778,0.587c-0.603,0-1.133-0.039-1.55-0.076l-0.301-1.854
			c0.907,0.114,1.455,0.152,1.626,0.152c0.509,0,0.849-0.17,1.038-0.548c0.284-0.265,0.512-2.382,0.663-6.39h-3.159
			c-0.319,2.118-0.754,3.801-1.322,5.047c-0.68,1.437-1.683,2.686-3.043,3.819l-1.192-1.493c1.136-0.945,2.044-2.004,2.686-3.196
			c0.509-1.04,0.908-2.438,1.172-4.178h-2.532v-1.399c-0.228,0.246-0.435,0.491-0.662,0.738l-1.476-1.267
			c0.984-0.983,1.798-1.965,2.401-2.949c0.567-0.983,1.041-2.156,1.438-3.555L719.552-25.457z"/>
		<path fill="#231815" d="M736.226-24.134c0.302-0.606,0.586-1.267,0.888-2.005l1.928,0.228c-0.228,0.642-0.473,1.247-0.719,1.777
			h8.545v1.701h-9.432c-0.34,0.585-0.701,1.134-1.08,1.626h8.962v10.038c0,0.549-0.15,0.983-0.435,1.304
			c-0.302,0.302-0.775,0.474-1.417,0.474h-3.025l-0.379-1.627l2.893,0.076c0.34,0,0.512-0.17,0.512-0.53v-1.758h-8.281v3.915h-1.834
			v-8.602c-0.852,0.755-1.757,1.455-2.741,2.098l-1.171-1.474c1.91-1.287,3.517-2.703,4.82-4.235
			c0.34-0.378,0.663-0.813,1.003-1.304h-5.314v-1.701H736.226z M743.467-17.632v-1.55h-8.281v1.55H743.467z M743.467-14.38v-1.776
			h-8.281v1.776H743.467z"/>
		<path fill="#231815" d="M755.998-25.457v1.323c-0.414,1.436-0.869,2.968-1.396,4.574c0.47,0.87,0.81,1.646,1.021,2.326
			c0.245,0.717,0.378,1.324,0.378,1.814c-0.038,0.983-0.228,1.701-0.606,2.118c-0.417,0.51-1.321,0.756-2.721,0.756l-0.512-1.777
			c0.302,0.058,0.606,0.075,0.891,0.075c0.375,0,0.659-0.075,0.849-0.265c0.207-0.132,0.322-0.435,0.322-0.907
			c0-0.568-0.095-1.097-0.267-1.607c-0.207-0.642-0.585-1.399-1.133-2.305c0.643-1.778,1.115-3.271,1.399-4.5h-2.363v14.992h-1.76
			v-16.617H755.998L755.998-25.457z M765.377-17.348h-3.65c0.229,0.945,0.512,1.797,0.87,2.514c0.869-0.472,1.703-1.152,2.496-2.06
			l1.325,1.248c-0.891,0.945-1.872,1.682-2.952,2.193c0.908,1.21,2.118,2.193,3.611,2.986l-0.964,1.626
			c-1.89-1.172-3.289-2.477-4.197-3.914c-0.869-1.266-1.493-2.796-1.852-4.593h-1.777v5.975c1.003-0.247,2.041-0.587,3.1-1.022
			v1.777c-1.852,0.7-3.895,1.268-6.125,1.702l-0.228-1.853c0.512-0.038,1.023-0.114,1.55-0.208v-14.557h8.793V-17.348
			L765.377-17.348z M763.676-22.282v-1.701h-5.389v1.701H763.676z M763.676-18.898v-1.833h-5.389v1.833H763.676z"/>
		<path fill="#231815" d="M775.565-24.721c-0.68,1.909-1.286,3.29-1.777,4.121c-0.491,0.945-1.322,2.042-2.514,3.328l-1.55-1.324
			c1.021-1.04,1.852-2.06,2.496-3.082c0.567-1.021,1.076-2.269,1.493-3.705L775.565-24.721z M778.289-19.635
			c-1.209,3.196-2.422,5.785-3.67,7.789c2.763-0.075,5.259-0.245,7.488-0.472c-0.567-1.287-1.209-2.533-1.89-3.763l1.831-0.605
			c1.286,2.137,2.461,4.575,3.48,7.317l-2.062,0.529c-0.228-0.661-0.473-1.304-0.7-1.909c-2.532,0.34-6.596,0.643-12.156,0.945
			l-0.302-1.928c0.719,0,1.438-0.02,2.118-0.039c1.248-2.004,2.534-4.877,3.874-8.602L778.289-19.635z M782.427-25.76
			c0.684,2.344,2.139,4.537,4.351,6.579l-1.248,1.758c-1.097-0.983-1.967-1.985-2.629-3.006c-0.793-1.096-1.417-2.344-1.89-3.705
			h-3.818v-1.626H782.427L782.427-25.76z"/>
		<path fill="#231815" d="M805.455-25.326v14.406c0,0.68-0.207,1.19-0.586,1.531c-0.36,0.303-0.929,0.473-1.703,0.473h-2.588
			l-0.361-1.853l2.57,0.076c0.494,0,0.739-0.284,0.739-0.813v-12.119h-13.877v-1.701H805.455L805.455-25.326z M800.349-21.923v1.626
			h-10.473v-1.626H800.349z M799.764-18.596v6.504h-9.379v-6.504H799.764z M797.91-16.969h-5.67v3.252h5.67V-16.969z"/>
	</g>
	<g>
		<path fill="#231815" d="M572.498,2.199c-0.636,0-1.118-0.184-1.467-0.568c-0.356-0.388-0.54-0.908-0.54-1.564h0.985
			c0.009,0.464,0.115,0.781,0.309,0.964c0.192,0.195,0.501,0.281,0.945,0.281c0.328,0,0.618-0.077,0.851-0.251
			c0.23-0.163,0.347-0.396,0.347-0.704c0-0.281-0.193-0.521-0.561-0.716c-0.318-0.115-0.627-0.239-0.936-0.355
			c-0.56-0.213-0.965-0.417-1.207-0.609c-0.396-0.308-0.588-0.695-0.588-1.177c0-0.559,0.203-1.002,0.617-1.352
			c0.387-0.308,0.859-0.473,1.438-0.473c0.618,0,1.12,0.154,1.486,0.443c0.405,0.329,0.618,0.822,0.637,1.458h-0.974
			c-0.03-0.674-0.386-1.014-1.081-1.014c-0.309,0-0.569,0.077-0.782,0.222c-0.241,0.157-0.358,0.378-0.358,0.648
			c0,0.269,0.136,0.491,0.416,0.656c0.068,0.047,0.318,0.154,0.752,0.32c0.744,0.298,1.217,0.508,1.409,0.636
			c0.474,0.328,0.714,0.751,0.714,1.284C574.911,1.581,574.101,2.199,572.498,2.199z"/>
		<path fill="#231815" d="M579.775,1.554c-0.405,0.444-0.983,0.657-1.737,0.657c-0.751,0-1.331-0.213-1.736-0.657
			c-0.416-0.435-0.618-1.014-0.618-1.748V-4.21h0.936v4.076c0,0.432,0.126,0.781,0.377,1.05c0.25,0.272,0.597,0.396,1.041,0.396
			c0.435,0,0.784-0.125,1.034-0.396c0.251-0.269,0.377-0.618,0.377-1.05V-4.21h0.936v4.017
			C580.384,0.54,580.181,1.119,579.775,1.554z"/>
		<path fill="#231815" d="M585.344,2.084l-2.868-4.682v4.682h-0.936V-4.21h0.975l2.848,4.673V-4.21h0.936v6.294H585.344z"/>
		<path fill="#231815" d="M591.259,2.084l-2.866-4.682v4.682h-0.936V-4.21h0.974l2.847,4.673V-4.21h0.937v6.294H591.259z"/>
		<path fill="#231815" d="M596.268-0.599v2.683h-0.946v-2.683l-2.384-3.611h1.139l1.729,2.703l1.727-2.703h1.12L596.268-0.599z"/>
		<path fill="#231815" d="M603.524-3.311v1.707h2.674v0.899h-2.674v2.789h-0.936V-4.21h3.706v0.899H603.524L603.524-3.311z"/>
		<path fill="#231815" d="M610.792,2.084c-0.098-0.125-0.174-0.396-0.232-0.819c-0.039-0.311-0.077-0.618-0.117-0.929
			c-0.058-0.385-0.116-0.615-0.192-0.704c-0.098-0.095-0.348-0.154-0.744-0.154h-1.312v2.606h-0.938V-4.21h2.23
			c0.638,0,1.13,0.157,1.497,0.456c0.386,0.328,0.58,0.801,0.58,1.419c0,0.269-0.078,0.521-0.222,0.76
			c-0.155,0.243-0.349,0.426-0.58,0.55c0.367,0.195,0.58,0.562,0.637,1.112c0.019,0.23,0.066,0.627,0.145,1.195
			c0.039,0.29,0.183,0.55,0.453,0.802H610.792L610.792,2.084z M609.403-3.311h-1.207v1.89h1.052c0.367,0,0.676-0.065,0.917-0.21
			c0.271-0.166,0.416-0.405,0.416-0.716C610.579-2.983,610.183-3.311,609.403-3.311z"/>
		<path fill="#231815" d="M613.328,2.084V-4.21h0.947v6.294H613.328z"/>
		<path fill="#231815" d="M615.983,2.084V-4.21h3.87v0.899h-2.934v1.698h2.829v0.899h-2.829v1.902h3.06v0.896H615.983z"/>
		<path fill="#231815" d="M624.746,2.084l-2.866-4.682v4.682h-0.938V-4.21h0.975l2.848,4.673V-4.21h0.936v6.294H624.746z"/>
		<path fill="#231815" d="M628.557,2.084h-1.699V-4.21h1.68c1.042,0,1.853,0.272,2.443,0.811c0.598,0.562,0.896,1.343,0.896,2.345
			C631.877,1.042,630.768,2.084,628.557,2.084z M628.452-3.32h-0.656v4.507h1.023c0.695,0,1.215-0.204,1.572-0.618
			c0.328-0.387,0.503-0.929,0.503-1.624C630.894-2.56,630.073-3.32,628.452-3.32z"/>
		<path fill="#231815" d="M636.056,2.084V-4.21h3.87v0.899h-2.934v1.698h2.828v0.899h-2.828v1.902h3.06v0.896H636.056z"/>
		<path fill="#231815" d="M644.82,2.084l-2.868-4.682v4.682h-0.936V-4.21h0.975l2.848,4.673V-4.21h0.936v6.294H644.82z"/>
		<path fill="#231815" d="M649.711,2.084h-0.917l-2.298-6.294h1.005l1.748,4.904l1.757-4.904H652L649.711,2.084z"/>
		<path fill="#231815" d="M653.281,2.084V-4.21h0.946v6.294H653.281z"/>
		<path fill="#231815" d="M659.469,2.084c-0.098-0.125-0.175-0.396-0.233-0.819c-0.036-0.311-0.077-0.618-0.113-0.929
			c-0.059-0.385-0.118-0.615-0.194-0.704c-0.095-0.095-0.35-0.154-0.743-0.154h-1.313v2.606h-0.938V-4.21h2.23
			c0.639,0,1.13,0.157,1.497,0.456c0.387,0.328,0.579,0.801,0.579,1.419c0,0.269-0.076,0.521-0.222,0.76
			c-0.153,0.243-0.346,0.426-0.579,0.55c0.366,0.195,0.579,0.562,0.636,1.112c0.021,0.23,0.07,0.627,0.147,1.195
			c0.035,0.29,0.184,0.55,0.452,0.802H659.469L659.469,2.084z M658.078-3.311h-1.206v1.89h1.053c0.363,0,0.674-0.065,0.917-0.21
			c0.269-0.166,0.414-0.405,0.414-0.716C659.256-2.983,658.862-3.311,658.078-3.311z"/>
		<path fill="#231815" d="M666.244,1.226c-0.512,0.657-1.236,0.985-2.162,0.985c-0.938,0-1.653-0.328-2.152-0.985
			c-0.453-0.58-0.678-1.343-0.678-2.269c0-0.929,0.225-1.688,0.668-2.277c0.5-0.668,1.225-1.005,2.171-1.005
			c0.935,0,1.659,0.337,2.162,1.005c0.444,0.589,0.666,1.349,0.666,2.277C666.919-0.117,666.688,0.637,666.244,1.226z M665.51-2.675
			c-0.34-0.503-0.813-0.763-1.429-0.763c-0.618,0-1.091,0.251-1.419,0.754c-0.29,0.444-0.426,0.985-0.426,1.642
			s0.145,1.195,0.435,1.621c0.328,0.503,0.801,0.743,1.419,0.743c0.606,0,1.08-0.24,1.417-0.743
			c0.281-0.426,0.426-0.964,0.426-1.621S665.789-2.24,665.51-2.675z"/>
		<path fill="#231815" d="M671.686,2.084l-2.866-4.682v4.682h-0.938V-4.21h0.973l2.849,4.673V-4.21h0.938v6.294H671.686z"/>
		<path fill="#231815" d="M679.222,2.084v-4.103l-1.813,4.103h-0.852l-1.813-4.103v4.103h-0.946V-4.21h0.938l2.248,5.099
			l2.248-5.099h0.938v6.294H679.222z"/>
		<path fill="#231815" d="M681.325,2.084V-4.21h3.871v0.899h-2.934v1.698h2.827v0.899h-2.827v1.902h3.058v0.896H681.325z"/>
		<path fill="#231815" d="M690.089,2.084l-2.866-4.682v4.682h-0.938V-4.21h0.976l2.849,4.673V-4.21h0.935v6.294H690.089z"/>
		<path fill="#231815" d="M694.693-3.311v5.404h-0.946v-5.404h-1.932V-4.21h4.807v0.899H694.693z"/>
		<path fill="#231815" d="M701.922,2.093l-0.678-1.6h-2.614l-0.665,1.6h-1.006l2.567-6.291h0.811l2.578,6.291H701.922z
			 M699.931-2.82l-0.935,2.413h1.881L699.931-2.82z"/>
		<path fill="#231815" d="M703.636,2.084V-4.21h0.947v5.406h2.904v0.888H703.636z"/>
		<path fill="#231815" d="M713.965-3.311v5.404h-0.946v-5.404h-1.932V-4.21h4.807v0.899H713.965z"/>
		<path fill="#231815" d="M716.665,2.084V-4.21h3.872v0.899h-2.935v1.698h2.828v0.899h-2.828v1.902h3.059v0.896H716.665z"/>
		<path fill="#231815" d="M725.679,1.67c-0.405,0.367-0.917,0.541-1.535,0.541c-0.938,0-1.641-0.328-2.105-1.005
			c-0.405-0.568-0.606-1.322-0.606-2.248c0-0.908,0.201-1.65,0.627-2.25c0.482-0.684,1.178-1.032,2.085-1.032
			c0.618,0,1.13,0.166,1.515,0.494c0.417,0.355,0.627,0.858,0.647,1.494h-0.955c-0.098-0.733-0.503-1.1-1.207-1.1
			c-0.597,0-1.053,0.26-1.352,0.772c-0.251,0.426-0.375,0.967-0.375,1.624s0.124,1.195,0.375,1.6
			c0.299,0.512,0.755,0.763,1.352,0.763c0.329,0,0.609-0.095,0.841-0.308c0.222-0.192,0.366-0.473,0.443-0.831h0.964
			C726.315,0.821,726.076,1.321,725.679,1.67z"/>
		<path fill="#231815" d="M730.976,2.084v-2.798h-2.768v2.798h-0.946V-4.21h0.946v2.597h2.768V-4.21h0.947v6.294H730.976z"/>
		<path fill="#231815" d="M736.883,2.084l-2.865-4.682v4.682h-0.938V-4.21h0.976l2.849,4.673V-4.21h0.935v6.294H736.883z"/>
		<path fill="#231815" d="M743.795,1.226c-0.512,0.657-1.236,0.985-2.165,0.985c-0.935,0-1.65-0.328-2.149-0.985
			c-0.456-0.58-0.678-1.343-0.678-2.269c0-0.929,0.222-1.688,0.665-2.277c0.503-0.668,1.228-1.005,2.174-1.005
			c0.935,0,1.659,0.337,2.162,1.005c0.444,0.589,0.666,1.349,0.666,2.277C744.469-0.117,744.239,0.637,743.795,1.226z
			 M743.061-2.675c-0.34-0.503-0.813-0.763-1.432-0.763c-0.615,0-1.088,0.251-1.416,0.754c-0.29,0.444-0.426,0.985-0.426,1.642
			s0.145,1.195,0.435,1.621c0.328,0.503,0.801,0.743,1.419,0.743c0.606,0,1.08-0.24,1.417-0.743
			c0.281-0.426,0.426-0.964,0.426-1.621S743.34-2.24,743.061-2.675z"/>
		<path fill="#231815" d="M745.433,2.084V-4.21h0.946v5.406h2.904v0.888H745.433z"/>
		<path fill="#231815" d="M754.853,1.226c-0.512,0.657-1.236,0.985-2.162,0.985c-0.938,0-1.65-0.328-2.153-0.985
			c-0.452-0.58-0.674-1.343-0.674-2.269c0-0.929,0.222-1.688,0.665-2.277c0.5-0.668,1.225-1.005,2.171-1.005
			c0.938,0,1.659,0.337,2.162,1.005c0.443,0.589,0.666,1.349,0.666,2.277C755.528-0.117,755.297,0.637,754.853,1.226z M754.12-2.675
			c-0.34-0.503-0.811-0.763-1.429-0.763s-1.091,0.251-1.42,0.754c-0.289,0.444-0.426,0.985-0.426,1.642s0.148,1.195,0.436,1.621
			c0.328,0.503,0.801,0.743,1.419,0.743c0.609,0,1.08-0.24,1.42-0.743c0.278-0.426,0.423-0.964,0.423-1.621
			S754.398-2.24,754.12-2.675z"/>
		<path fill="#231815" d="M759.02,2.211c-0.896,0-1.591-0.34-2.085-1.035c-0.423-0.588-0.636-1.331-0.636-2.23
			c0-0.887,0.201-1.63,0.618-2.227c0.482-0.695,1.168-1.044,2.056-1.044c0.656,0,1.186,0.174,1.573,0.502
			c0.405,0.367,0.627,0.888,0.645,1.565h-0.964c-0.06-0.784-0.474-1.18-1.254-1.18c-0.563,0-0.994,0.272-1.305,0.792
			c-0.269,0.453-0.396,0.985-0.396,1.591c0,1.594,0.657,2.387,1.979,2.387c0.349,0,0.686-0.068,1.022-0.204v-1.603h-1.467v-0.896
			h2.414v3.097C760.671,2.054,759.937,2.211,759.02,2.211z"/>
		<path fill="#231815" d="M765.081-0.599v2.683h-0.943v-2.683l-2.384-3.611h1.139l1.727,2.703l1.728-2.703h1.121L765.081-0.599z"/>
		<path fill="#231815" d="M775.456,1.67c-0.405,0.367-0.917,0.541-1.535,0.541c-0.935,0-1.642-0.328-2.103-1.005
			c-0.405-0.568-0.609-1.322-0.609-2.248c0-0.908,0.204-1.65,0.627-2.25c0.482-0.684,1.177-1.032,2.085-1.032
			c0.618,0,1.13,0.166,1.515,0.494c0.417,0.355,0.63,0.858,0.647,1.494h-0.955c-0.095-0.733-0.503-1.1-1.207-1.1
			c-0.598,0-1.053,0.26-1.352,0.772c-0.251,0.426-0.375,0.967-0.375,1.624s0.124,1.195,0.375,1.6
			c0.299,0.512,0.754,0.763,1.352,0.763c0.328,0,0.609-0.095,0.84-0.308c0.222-0.192,0.367-0.473,0.444-0.831h0.967
			C776.094,0.821,775.852,1.321,775.456,1.67z"/>
		<path fill="#231815" d="M781.836,1.226c-0.512,0.657-1.236,0.985-2.162,0.985c-0.938,0-1.65-0.328-2.153-0.985
			c-0.452-0.58-0.675-1.343-0.675-2.269c0-0.929,0.223-1.688,0.666-2.277c0.503-0.668,1.225-1.005,2.171-1.005
			c0.938,0,1.662,0.337,2.162,1.005c0.443,0.589,0.665,1.349,0.665,2.277C782.51-0.117,782.279,0.637,781.836,1.226z M781.102-2.675
			c-0.338-0.503-0.811-0.763-1.429-0.763s-1.092,0.251-1.42,0.754c-0.29,0.444-0.423,0.985-0.423,1.642s0.145,1.195,0.432,1.621
			c0.328,0.503,0.802,0.743,1.42,0.743c0.609,0,1.082-0.24,1.42-0.743c0.277-0.426,0.423-0.964,0.423-1.621
			C781.528-1.699,781.38-2.24,781.102-2.675z"/>
		<path fill="#231815" d="M783.282,2.211v-1.18h1.177v1.18H783.282z"/>
		<path fill="#231815" d="M786.216,2.924c-0.154,0.192-0.405,0.396-0.763,0.609l-0.308-0.464c0.452-0.231,0.712-0.512,0.789-0.858
			h-0.615V1.042h1.178v0.956C786.497,2.365,786.399,2.672,786.216,2.924z"/>
		<path fill="#231815" d="M790.587,2.084V-4.21h0.946v5.406h2.904v0.888H790.587z"/>
		<path fill="#231815" d="M797.7-3.311v5.404h-0.946v-5.404h-1.929V-4.21h4.807v0.899H797.7z"/>
		<path fill="#231815" d="M802.1,2.084h-1.7V-4.21h1.68c1.044,0,1.854,0.272,2.443,0.811c0.598,0.562,0.896,1.343,0.896,2.345
			C805.422,1.042,804.31,2.084,802.1,2.084z M801.994-3.32h-0.656v4.507h1.023c0.695,0,1.216-0.204,1.573-0.618
			c0.328-0.387,0.503-0.929,0.503-1.624C804.437-2.56,803.615-3.32,801.994-3.32z"/>
		<path fill="#231815" d="M806.191,2.211v-1.18h1.177v1.18H806.191z"/>
	</g>
	<rect x="570.782" y="-31.899" fill="#155D8E" width="248.662" height="1.287"/>
	
		<linearGradient id="SVGID_1_" gradientUnits="userSpaceOnUse" x1="788.4167" y1="-25.0188" x2="809.8652" y2="-91.1819" gradientTransform="matrix(1 0 0 -1 -267.5996 -86.8354)">
		<stop  offset="0" style="stop-color:#048AD3"/>
		<stop  offset="1" style="stop-color:#2D166F"/>
	</linearGradient>
	<path fill="url(#SVGID_1_)" d="M513.463-58.606c0,0,18.299-8.967,35.993,9.331c17.692,18.299,5.573,41.081-13.453,41.202
		c-19.025,0.122-31.584-15.175-33.567-23.826C500.452-40.55,500.254-52.305,513.463-58.606z"/>
	
		<radialGradient id="SVGID_2_" cx="785.8142" cy="-42.3118" r="32.717" gradientTransform="matrix(1 0 0 -1 -267.5996 -86.8354)" gradientUnits="userSpaceOnUse">
		<stop  offset="0" style="stop-color:#7DBD27"/>
		<stop  offset="1" style="stop-color:#039B37"/>
	</radialGradient>
	<path fill="url(#SVGID_2_)" d="M517.656-52.385c0,0,13.589-6.66,26.727,6.928c13.139,13.589,4.141,30.507-9.988,30.598
		s-23.455-11.27-24.928-17.694C507.994-38.977,507.848-47.706,517.656-52.385z"/>
	<path fill="#FFFFFF" d="M542.24-41.598c0,0,6.196,0.33,7.23-1.454c1.032-1.784,5.232-9.114-15.285-11.162
		c-20.517-2.046-29.674,24.372-27.952,25.957c1.721,1.585,15.01-15.7,21.756-13.035c6.748,2.666,8.744,4.846,11.223,6.893
		c2.479,2.048,9.958,10.312,11.314,8.058C552.393-29.448,543.549-40.343,542.24-41.598z"/>
</g>
</svg>
