<?xml version="1.0" encoding="utf-8"?>
<!-- Generator: Adobe Illustrator 16.0.0, SVG Export Plug-In . SVG Version: 6.00 Build 0)  -->
<!DOCTYPE svg PUBLIC "-//W3C//DTD SVG 1.1//EN" "http://www.w3.org/Graphics/SVG/1.1/DTD/svg11.dtd">
<svg version="1.1" id="圖層_1" xmlns="http://www.w3.org/2000/svg" xmlns:xlink="http://www.w3.org/1999/xlink" x="0px" y="0px"
	 width="65px" height="60px" viewBox="0 0 65 60" enable-background="new 0 0 65 60" xml:space="preserve">
<g>
	<g>
		<path fill="#169243" stroke="#169243" stroke-width="0.6701" stroke-miterlimit="10" d="M62.066,29.036
			c-0.286-0.175-0.643-0.19-0.94-0.04L45.662,36.8v-6.941c0-0.335-0.175-0.647-0.46-0.823s-0.642-0.19-0.941-0.04l-15.512,7.852
			v-6.99c0-0.336-0.175-0.647-0.462-0.824c-0.285-0.174-0.643-0.189-0.942-0.037l-15.409,7.847v-5.058l4.126-4.126
			c1.024,0.16,2.065,0.241,3.103,0.241c5.341,0,10.362-2.079,14.138-5.855c4.644-4.643,6.711-11.277,5.53-17.745
			c-0.071-0.396-0.381-0.705-0.776-0.777C36.869,3.309,35.655,3.2,34.448,3.2c-5.341,0-10.361,2.079-14.139,5.856
			c-4.522,4.521-6.598,10.933-5.613,17.24l-2.761,2.76V8.03c0-0.534-0.432-0.966-0.965-0.966H2.966C2.433,7.063,2,7.496,2,8.03
			v49.188c0,0.532,0.433,0.966,0.966,0.966h58.595c0.532,0,0.966-0.434,0.966-0.966V29.859
			C62.526,29.524,62.353,29.211,62.066,29.036L62.066,29.036z M21.676,10.422c3.411-3.412,7.948-5.291,12.772-5.291
			c0.866,0,1.736,0.063,2.593,0.186c0.812,5.63-1.07,11.33-5.105,15.364c-3.412,3.412-7.948,5.291-12.772,5.291
			c-0.454,0-0.907-0.019-1.36-0.052L35.01,8.713c0.378-0.377,0.378-0.989,0-1.366c-0.376-0.377-0.987-0.377-1.365,0L16.438,24.554
			C16.048,19.333,17.936,14.162,21.676,10.422L21.676,10.422z M10.004,8.995v1.932H3.932V8.995H10.004z M60.595,56.251h-48.66
			V42.284c0-0.534-0.432-0.966-0.965-0.966s-0.965,0.432-0.965,0.966v13.967H3.932V12.859h6.072V38.42
			c0,0.336,0.174,0.647,0.46,0.823c0.287,0.176,0.643,0.189,0.943,0.038l15.408-7.846v6.984c0,0.336,0.174,0.647,0.459,0.822
			c0.286,0.177,0.643,0.19,0.942,0.039l15.511-7.852v6.938c0,0.337,0.176,0.648,0.461,0.823c0.286,0.176,0.642,0.191,0.941,0.04
			l15.463-7.804V56.251z M60.595,56.251"/>
	</g>
	<path fill="#169243" stroke="#169243" stroke-width="0.6701" stroke-miterlimit="10" d="M21.087,47.46
		c-0.533,0-0.966,0.434-0.966,0.966v4.928c0,0.534,0.433,0.966,0.966,0.966c0.535,0,0.966-0.432,0.966-0.966v-3.962h8.187v3.962
		c0,0.534,0.432,0.966,0.966,0.966c0.533,0,0.966-0.432,0.966-0.966v-3.962h8.186v3.962c0,0.534,0.433,0.966,0.966,0.966
		c0.534,0,0.965-0.432,0.965-0.966v-3.962h8.187v3.962c0,0.534,0.434,0.966,0.967,0.966s0.966-0.432,0.966-0.966v-4.928
		c0-0.532-0.433-0.966-0.966-0.966H21.087z M21.087,47.46"/>
</g>
</svg>
