<?xml version="1.0" encoding="utf-8"?>
<!-- Generator: Adobe Illustrator 16.0.0, SVG Export Plug-In . SVG Version: 6.00 Build 0)  -->
<!DOCTYPE svg PUBLIC "-//W3C//DTD SVG 1.1//EN" "http://www.w3.org/Graphics/SVG/1.1/DTD/svg11.dtd">
<svg version="1.1" id="圖層_1" xmlns="http://www.w3.org/2000/svg" xmlns:xlink="http://www.w3.org/1999/xlink" x="0px" y="0px"
	 width="65px" height="65px" viewBox="0 0 65 65" enable-background="new 0 0 65 65" xml:space="preserve">
<circle fill="#009844" cx="32.5" cy="32.353" r="31.353"/>
<g>
	<path fill="#FFFFFF" d="M57.632,30.633c-0.175-0.144-0.404-0.201-0.625-0.158l-5.087,1.005c-0.354,0.07-0.608,0.379-0.608,0.739
		v0.581h-2.575v-0.429c0-1.333-1.126-2.418-2.512-2.418h-2.376c2.987-1.331,5.075-4.327,5.075-7.802c0-4.709-3.831-8.54-8.54-8.54
		c-3.477,0-6.473,2.089-7.804,5.078c-1.331-2.989-4.328-5.078-7.804-5.078c-4.709,0-8.541,3.831-8.541,8.54
		c0,3.476,2.089,6.471,5.075,7.802h-2.341c-1.337,0-2.43,1.012-2.505,2.281l-2.317-0.366c-0.218-0.034-0.44,0.029-0.607,0.172
		c-0.167,0.143-0.264,0.352-0.264,0.573v4.96c0,0.221,0.096,0.43,0.264,0.573c0.138,0.118,0.311,0.181,0.49,0.181
		c0.039,0,0.078-0.003,0.118-0.009l2.31-0.365v5.65c0,1.332,1.127,2.417,2.512,2.417h5.181v3.329c0,0.416,0.338,0.753,0.754,0.753
		H40.29c0.417,0,0.753-0.337,0.753-0.753v-3.329h5.182c1.385,0,2.513-1.085,2.513-2.417v-1.257h2.575v0.581
		c0,0.36,0.254,0.669,0.607,0.74l5.088,1.004c0.049,0.009,0.098,0.014,0.146,0.014c0.173,0,0.341-0.061,0.479-0.171
		c0.174-0.143,0.275-0.356,0.275-0.582V31.216C57.906,30.989,57.806,30.777,57.632,30.633L57.632,30.633z M40.383,15.119
		c3.877,0,7.033,3.155,7.033,7.032c0,3.878-3.156,7.033-7.033,7.033c-3.878,0-7.034-3.155-7.034-7.033
		C33.35,18.274,36.505,15.119,40.383,15.119L40.383,15.119z M17.742,22.151c0-3.877,3.155-7.032,7.033-7.032
		c3.877,0,7.033,3.155,7.033,7.032c0,3.173-2.112,5.86-5.003,6.733v-6.607c0.002-0.042,0.007-0.083,0.007-0.125
		c0-1.123-0.913-2.036-2.036-2.036s-2.036,0.913-2.036,2.036h-0.006v6.729C19.848,28.003,17.742,25.319,17.742,22.151L17.742,22.151
		z M24.24,24.114c0.171,0.046,0.35,0.074,0.536,0.074c0.181,0,0.355-0.026,0.522-0.071v5.046c-0.172,0.013-0.347,0.021-0.522,0.021
		c-0.18,0-0.359-0.008-0.536-0.022V24.114z M25.298,22.151v0.063c-0.031,0.262-0.252,0.466-0.522,0.466
		c-0.292,0-0.529-0.237-0.529-0.528c0-0.292,0.238-0.528,0.529-0.528s0.529,0.236,0.529,0.528L25.298,22.151L25.298,22.151z
		 M32.58,25.613c0.858,1.928,2.41,3.48,4.338,4.34h-8.677C30.168,29.094,31.72,27.541,32.58,25.613L32.58,25.613z M17.964,39.362
		v-6.991c0-0.502,0.451-0.91,1.005-0.91l0,0h27.255c0.555,0,1.005,0.408,1.005,0.91v6.991 M14.783,36.691v-3.196l1.674,0.265v2.667
		L14.783,36.691z M39.536,48.596H25.657v-2.575h13.879V48.596z M40.29,44.513H18.969c-0.554,0-1.005-0.45-1.005-1.005V40.87h29.266
		v2.638c0,0.555-0.451,1.005-1.005,1.005H40.29z M48.737,40.839v-6.531h2.575v6.531H48.737z M56.399,43.015l-3.58-0.707v-9.468
		l3.58-0.707V43.015z M56.399,43.015"/>
	<path fill="#FFFFFF" d="M40.383,24.188c1.122,0,2.036-0.913,2.036-2.036c0-1.123-0.914-2.036-2.036-2.036
		c-1.123,0-2.036,0.913-2.036,2.036C38.348,23.274,39.261,24.188,40.383,24.188L40.383,24.188z M40.383,21.624
		c0.291,0,0.528,0.236,0.528,0.527c0,0.291-0.237,0.529-0.528,0.529c-0.292,0-0.528-0.238-0.528-0.529
		C39.855,21.86,40.091,21.624,40.383,21.624L40.383,21.624z M40.383,21.624"/>
</g>
</svg>
