<?xml version="1.0" encoding="utf-8"?>
<!-- Generator: Adobe Illustrator 16.0.0, SVG Export Plug-In . SVG Version: 6.00 Build 0)  -->
<!DOCTYPE svg PUBLIC "-//W3C//DTD SVG 1.1//EN" "http://www.w3.org/Graphics/SVG/1.1/DTD/svg11.dtd">
<svg version="1.1" id="圖層_1" xmlns="http://www.w3.org/2000/svg" xmlns:xlink="http://www.w3.org/1999/xlink" x="0px" y="0px"
	 width="65px" height="65px" viewBox="0 0 65 65" enable-background="new 0 0 65 65" xml:space="preserve">
<circle fill="#009844" cx="32.5" cy="32.353" r="31.353"/>
<g>
	<path fill="#FFFFFF" stroke="#009844" stroke-width="0.3763" stroke-miterlimit="10" d="M51.466,31.543
		c-0.619-9.499-8.208-17.085-17.704-17.717V13.79h-2.522v0.037c-9.499,0.632-17.084,8.218-17.715,17.717h-0.038v2.523h0.038
		c0.631,9.495,8.216,17.084,17.715,17.703v0.05h2.522v-0.05c9.497-0.619,17.085-8.208,17.704-17.703h0.048v-2.523H51.466z
		 M25.395,17.938c-1.226,1.62-2.253,3.663-2.985,5.99h-3.798C20.259,21.354,22.609,19.263,25.395,17.938L25.395,17.938z
		 M17.285,26.466h4.455c-0.344,1.598-0.553,3.306-0.63,5.078h-5.039C16.208,29.747,16.63,28.051,17.285,26.466L17.285,26.466z
		 M16.071,34.066h5.039c0.078,1.771,0.287,3.479,0.63,5.076h-4.455C16.63,37.558,16.208,35.862,16.071,34.066L16.071,34.066z
		 M18.611,41.68h3.786c0.744,2.327,1.759,4.37,2.997,5.991C22.609,46.347,20.259,44.255,18.611,41.68L18.611,41.68z M31.239,49.12
		c-2.616-0.693-4.856-3.491-6.214-7.439h6.214V49.12z M31.239,39.143h-6.934c-0.359-1.584-0.584-3.281-0.656-5.076h7.59V39.143z
		 M31.239,31.543h-7.59c0.072-1.797,0.297-3.493,0.656-5.078h6.934V31.543z M31.239,23.928h-6.214
		c1.358-3.949,3.598-6.746,6.214-7.438V23.928z M46.391,23.928h-3.789c-0.742-2.327-1.759-4.37-2.996-5.99
		C42.392,19.263,44.743,21.354,46.391,23.928L46.391,23.928z M33.762,16.49c2.613,0.692,4.854,3.489,6.216,7.438h-6.216V16.49z
		 M33.762,26.466h6.934c0.358,1.585,0.57,3.281,0.657,5.078h-7.59V26.466z M33.762,34.066h7.59
		c-0.075,1.795-0.298,3.492-0.657,5.076h-6.934V34.066z M33.762,49.12V41.68h6.216C38.615,45.629,36.375,48.427,33.762,49.12
		L33.762,49.12z M39.606,47.671c1.226-1.634,2.253-3.664,2.996-5.991h3.789C44.743,44.255,42.392,46.347,39.606,47.671
		L39.606,47.671z M47.714,39.143h-4.456c0.345-1.597,0.557-3.305,0.63-5.076h5.039C48.79,35.862,48.37,37.558,47.714,39.143
		L47.714,39.143z M43.889,31.543c-0.073-1.772-0.285-3.48-0.63-5.078h4.456c0.656,1.585,1.076,3.281,1.213,5.078H43.889z
		 M43.889,31.543"/>
</g>
</svg>
