<?xml version="1.0" encoding="utf-8"?>
<!-- Generator: Adobe Illustrator 16.0.0, SVG Export Plug-In . SVG Version: 6.00 Build 0)  -->
<!DOCTYPE svg PUBLIC "-//W3C//DTD SVG 1.1//EN" "http://www.w3.org/Graphics/SVG/1.1/DTD/svg11.dtd">
<svg version="1.1" id="圖層_1" xmlns="http://www.w3.org/2000/svg" xmlns:xlink="http://www.w3.org/1999/xlink" x="0px" y="0px"
	 width="65px" height="60px" viewBox="0 0 65 60" enable-background="new 0 0 65 60" xml:space="preserve">
<g>
	<path fill="#009844" stroke="#FFFFFF" stroke-width="0.5755" stroke-miterlimit="10" d="M61.458,28.054
		C60.512,13.527,48.905,1.923,34.381,0.958V0.901h-3.857v0.057C15.994,1.923,4.392,13.527,3.428,28.054H3.369v3.86h0.059
		c0.964,14.522,12.566,26.129,27.096,27.075v0.075h3.857v-0.075c14.524-0.946,26.131-12.553,27.077-27.075h0.074v-3.86H61.458z
		 M21.583,7.246c-1.875,2.478-3.447,5.602-4.566,9.162h-5.809C13.728,12.469,17.322,9.272,21.583,7.246L21.583,7.246z M9.18,20.289
		h6.814c-0.526,2.442-0.845,5.055-0.964,7.765H7.323C7.533,25.307,8.178,22.712,9.18,20.289L9.18,20.289z M7.323,31.914h7.707
		c0.119,2.707,0.438,5.319,0.964,7.763H9.18C8.178,37.254,7.533,34.659,7.323,31.914L7.323,31.914z M11.208,43.559h5.791
		c1.137,3.559,2.691,6.684,4.584,9.163C17.322,50.696,13.728,47.496,11.208,43.559L11.208,43.559z M30.523,54.938
		c-4.002-1.061-7.428-5.34-9.505-11.379h9.505V54.938z M30.523,39.677H19.917c-0.549-2.423-0.893-5.018-1.003-7.763h11.609V39.677z
		 M30.523,28.054H18.914c0.11-2.747,0.454-5.341,1.003-7.765h10.606V28.054z M30.523,16.407h-9.505
		c2.078-6.04,5.503-10.318,9.505-11.377V16.407z M53.695,16.407h-5.796c-1.135-3.56-2.688-6.684-4.581-9.162
		C47.578,9.272,51.176,12.469,53.695,16.407L53.695,16.407z M34.381,5.03c3.997,1.059,7.422,5.337,9.507,11.377h-9.507V5.03z
		 M34.381,20.289h10.604c0.549,2.423,0.873,5.018,1.006,7.765H34.381V20.289z M34.381,31.914H45.99
		c-0.116,2.745-0.457,5.34-1.006,7.763H34.381V31.914z M34.381,54.938V43.559h9.507C41.803,49.598,38.378,53.877,34.381,54.938
		L34.381,54.938z M43.318,52.722c1.875-2.499,3.446-5.604,4.581-9.163h5.796C51.176,47.496,47.578,50.696,43.318,52.722
		L43.318,52.722z M55.721,39.677h-6.815c0.528-2.443,0.852-5.056,0.964-7.763h7.706C57.367,34.659,56.724,37.254,55.721,39.677
		L55.721,39.677z M49.869,28.054c-0.112-2.71-0.436-5.322-0.964-7.765h6.815c1.003,2.423,1.646,5.018,1.854,7.765H49.869z
		 M49.869,28.054"/>
</g>
</svg>
